<svg xmlns="http://www.w3.org/2000/svg" viewBox="0 0 1200 1800" width="1200" height="1800">
  <defs>
    <!-- Gradients -->
    <linearGradient id="bgGrad" x1="0" y1="0" x2="0" y2="1">
      <stop offset="0%" stop-color="#f0f7f2"/>
      <stop offset="100%" stop-color="#e8f0ea"/>
    </linearGradient>
    <linearGradient id="heroGrad" x1="0" y1="0" x2="1" y2="0">
      <stop offset="0%" stop-color="#1a4a2e"/>
      <stop offset="100%" stop-color="#0f2d1a"/>
    </linearGradient>
    <linearGradient id="esophGrad" x1="0" y1="0" x2="0" y2="1">
      <stop offset="0%" stop-color="#e8836b"/>
      <stop offset="100%" stop-color="#d4654a"/>
    </linearGradient>
    <linearGradient id="stomachGrad" x1="0" y1="0" x2="0" y2="1">
      <stop offset="0%" stop-color="#f0a060"/>
      <stop offset="100%" stop-color="#e08840"/>
    </linearGradient>
    <linearGradient id="liverGrad" x1="0" y1="0" x2="1" y2="1">
      <stop offset="0%" stop-color="#9b4dca"/>
      <stop offset="100%" stop-color="#7b2faa"/>
    </linearGradient>
    <linearGradient id="pancreasGrad" x1="0" y1="0" x2="1" y2="0">
      <stop offset="0%" stop-color="#4a90d9"/>
      <stop offset="100%" stop-color="#2e78c2"/>
    </linearGradient>
    <linearGradient id="smallIntGrad" x1="0" y1="0" x2="0" y2="1">
      <stop offset="0%" stop-color="#2eb886"/>
      <stop offset="100%" stop-color="#1a9a6a"/>
    </linearGradient>
    <linearGradient id="colonGrad" x1="0" y1="0" x2="0" y2="1">
      <stop offset="0%" stop-color="#5a7a8a"/>
      <stop offset="100%" stop-color="#3a5a6a"/>
    </linearGradient>
    <filter id="shadow">
      <feDropShadow dx="2" dy="3" stdDeviation="4" flood-opacity="0.12"/>
    </filter>
    <filter id="shadowSm">
      <feDropShadow dx="1" dy="2" stdDeviation="2" flood-opacity="0.1"/>
    </filter>
    <filter id="glow">
      <feGaussianBlur stdDeviation="3" result="blur"/>
      <feMerge><feMergeNode in="blur"/><feMergeNode in="SourceGraphic"/></feMerge>
    </filter>
  </defs>

  <!-- BACKGROUND -->
  <rect width="1200" height="1800" fill="url(#bgGrad)"/>

  <!-- HEADER BANNER -->
  <rect x="0" y="0" width="1200" height="130" fill="url(#heroGrad)" rx="0"/>
  <text x="600" y="48" text-anchor="middle" font-family="Georgia, serif" font-size="32" font-weight="bold" fill="#ffffff">Le Système Digestif — Comprendre pour Protéger</text>
  <text x="600" y="78" text-anchor="middle" font-family="Arial, sans-serif" font-size="16" fill="#c8a84b" font-weight="600">PMAA Haïti · Plantes Médicinales, Aromatiques &amp; Alimentaires · Jardin Botanique des Cayes</text>
  <text x="600" y="108" text-anchor="middle" font-family="Arial, sans-serif" font-size="13" fill="rgba(255,255,255,0.7)">9 mètres de tube digestif · 38 trillions de bactéries · 70% du système immunitaire · 500 millions de neurones</text>

  <!-- ══════════════════════════════════════════════
       CENTRAL ANATOMY DRAWING
       ══════════════════════════════════════════════ -->

  <!-- Body silhouette (subtle) -->
  <path d="M500,170 Q520,160 540,160 Q600,160 640,170 Q680,180 700,200 Q720,230 720,270 Q720,340 710,400 Q720,500 730,580 Q740,650 740,720 Q738,830 730,920 Q725,1000 720,1080 Q718,1160 720,1240 Q722,1320 720,1380 Q700,1410 680,1380 Q660,1340 640,1380 Q620,1420 600,1380 Q580,1420 560,1380 Q540,1340 520,1380 Q500,1410 480,1380 Q478,1320 480,1240 Q482,1160 480,1080 Q475,1000 470,920 Q462,830 460,720 Q460,650 470,580 Q480,500 490,400 Q480,340 480,270 Q480,230 500,200 Z" fill="#fdf5ee" stroke="#e8d5c0" stroke-width="1.5" opacity="0.5"/>

  <!-- ── 1. BOUCHE (Mouth) ──────────────────────── -->
  <ellipse cx="600" cy="200" rx="50" ry="25" fill="#e74c3c" opacity="0.85"/>
  <ellipse cx="600" cy="200" rx="35" ry="15" fill="#c0392b" opacity="0.7"/>
  <!-- Teeth dots -->
  <circle cx="575" cy="193" r="4" fill="#fff" opacity="0.8"/>
  <circle cx="587" cy="189" r="4" fill="#fff" opacity="0.8"/>
  <circle cx="600" cy="187" r="4" fill="#fff" opacity="0.8"/>
  <circle cx="613" cy="189" r="4" fill="#fff" opacity="0.8"/>
  <circle cx="625" cy="193" r="4" fill="#fff" opacity="0.8"/>
  <text x="600" y="204" text-anchor="middle" font-family="Arial" font-size="11" fill="#fff" font-weight="bold">BOUCHE</text>

  <!-- ── 2. ŒSOPHAGE ────────────────────────────── -->
  <path d="M600,225 Q598,260 596,300 Q594,350 595,400 Q596,420 598,440" stroke="url(#esophGrad)" stroke-width="22" fill="none" stroke-linecap="round"/>
  <path d="M600,225 Q598,260 596,300 Q594,350 595,400 Q596,420 598,440" stroke="#d4654a" stroke-width="14" fill="none" stroke-linecap="round" opacity="0.4"/>
  <!-- Peristalsis arrows -->
  <text x="586" y="290" font-family="Arial" font-size="9" fill="#fff" font-weight="bold" transform="rotate(-2,586,290)">▼</text>
  <text x="588" y="340" font-family="Arial" font-size="9" fill="#fff" font-weight="bold" transform="rotate(-1,588,340)">▼</text>
  <text x="590" y="390" font-family="Arial" font-size="9" fill="#fff" font-weight="bold">▼</text>
  <text x="598" y="320" text-anchor="middle" font-family="Arial" font-size="9" fill="#fff" font-weight="bold" transform="rotate(-2,598,320)">ŒSOPHAGE</text>

  <!-- ── 3. ESTOMAC (Stomach) ────────────────────── -->
  <path d="M598,440 Q560,445 530,470 Q500,500 490,540 Q480,590 500,630 Q520,660 560,670 Q590,675 620,660 Q640,648 645,620 Q648,590 640,560 Q632,535 620,520 Q612,510 610,490 Q608,465 598,440 Z" fill="url(#stomachGrad)" filter="url(#shadowSm)"/>
  <!-- Stomach inner folds -->
  <path d="M540,490 Q560,510 540,530" stroke="#c87830" stroke-width="1.5" fill="none" opacity="0.5"/>
  <path d="M530,520 Q550,540 530,560" stroke="#c87830" stroke-width="1.5" fill="none" opacity="0.5"/>
  <path d="M520,560 Q545,575 525,595" stroke="#c87830" stroke-width="1.5" fill="none" opacity="0.5"/>
  <!-- pH indicator -->
  <circle cx="560" cy="560" r="22" fill="#c0392b" opacity="0.8"/>
  <text x="560" y="556" text-anchor="middle" font-family="Arial" font-size="10" fill="#fff" font-weight="bold">pH</text>
  <text x="560" y="570" text-anchor="middle" font-family="Arial" font-size="12" fill="#fff" font-weight="bold">1.5</text>
  <text x="570" y="515" text-anchor="middle" font-family="Arial" font-size="11" fill="#fff" font-weight="bold">ESTOMAC</text>

  <!-- ── 4. FOIE (Liver) ─────────────────────────── -->
  <path d="M450,400 Q430,410 415,430 Q400,460 410,490 Q420,510 445,520 Q470,528 500,520 Q515,515 520,500 Q525,485 520,465 Q515,445 500,430 Q485,415 465,405 Z" fill="url(#liverGrad)" filter="url(#shadowSm)"/>
  <text x="465" y="468" text-anchor="middle" font-family="Arial" font-size="10" fill="#fff" font-weight="bold">FOIE</text>
  <text x="465" y="482" text-anchor="middle" font-family="Arial" font-size="8" fill="rgba(255,255,255,0.8)">1.5 kg</text>
  <!-- Gallbladder -->
  <ellipse cx="505" cy="525" rx="14" ry="20" fill="#27ae60" transform="rotate(15,505,525)" filter="url(#shadowSm)"/>
  <text x="505" y="522" text-anchor="middle" font-family="Arial" font-size="6" fill="#fff" font-weight="bold">VÉS.</text>
  <text x="505" y="532" text-anchor="middle" font-family="Arial" font-size="6" fill="#fff" font-weight="bold">BIL.</text>

  <!-- ── 5. PANCRÉAS ─────────────────────────────── -->
  <path d="M520,630 Q540,622 580,618 Q620,616 660,620 Q680,624 690,635 Q695,645 685,652 Q670,658 640,655 Q600,650 560,648 Q535,646 525,640 Q518,635 520,630 Z" fill="url(#pancreasGrad)" filter="url(#shadowSm)"/>
  <text x="610" y="640" text-anchor="middle" font-family="Arial" font-size="9" fill="#fff" font-weight="bold">PANCRÉAS</text>

  <!-- ── 6. INTESTIN GRÊLE (Small intestine) ─────── -->
  <!-- Coiling path to show length -->
  <path d="M620,660 Q640,680 620,700 Q580,720 560,740 Q540,760 570,775 Q610,790 640,775 Q660,760 640,740 Q610,720 580,740 Q550,760 540,790 Q535,820 560,840 Q590,855 620,840 Q645,825 635,800 Q620,780 590,795 Q560,810 555,840 Q552,870 575,885 Q600,895 625,880 Q645,865 630,845 Q610,830 585,845 Q565,860 570,888"
    stroke="url(#smallIntGrad)" stroke-width="16" fill="none" stroke-linecap="round" stroke-linejoin="round" filter="url(#shadowSm)"/>
  <!-- Villi texture dots -->
  <circle cx="620" cy="690" r="2" fill="#fff" opacity="0.4"/>
  <circle cx="580" cy="730" r="2" fill="#fff" opacity="0.4"/>
  <circle cx="600" cy="770" r="2" fill="#fff" opacity="0.4"/>
  <circle cx="630" cy="810" r="2" fill="#fff" opacity="0.4"/>
  <circle cx="575" cy="850" r="2" fill="#fff" opacity="0.4"/>
  <text x="655" y="720" font-family="Arial" font-size="10" fill="#1a9a6a" font-weight="bold">INTESTIN</text>
  <text x="655" y="733" font-family="Arial" font-size="10" fill="#1a9a6a" font-weight="bold">GRÊLE</text>
  <text x="655" y="748" font-family="Arial" font-size="8" fill="#1a9a6a">(6-7 m)</text>

  <!-- ── 7. GROS INTESTIN / CÔLON ────────────────── -->
  <!-- Ascending colon -->
  <path d="M490,900 Q480,870 475,830 Q470,790 470,750 Q472,710 475,680" stroke="url(#colonGrad)" stroke-width="26" fill="none" stroke-linecap="round"/>
  <!-- Transverse colon -->
  <path d="M475,680 Q480,660 510,650 Q560,640 620,640 Q670,642 700,650 Q720,660 725,680" stroke="url(#colonGrad)" stroke-width="26" fill="none" stroke-linecap="round"/>
  <!-- Descending colon -->
  <path d="M725,680 Q728,720 730,760 Q732,810 730,860 Q726,900 720,930" stroke="url(#colonGrad)" stroke-width="26" fill="none" stroke-linecap="round"/>
  <!-- Sigmoid -->
  <path d="M720,930 Q700,960 660,970 Q620,975 600,960 Q585,945 590,920" stroke="url(#colonGrad)" stroke-width="22" fill="none" stroke-linecap="round"/>

  <!-- Haustra markings -->
  <line x1="468" y1="710" x2="482" y2="710" stroke="#2a4a5a" stroke-width="1" opacity="0.4"/>
  <line x1="466" y1="740" x2="480" y2="740" stroke="#2a4a5a" stroke-width="1" opacity="0.4"/>
  <line x1="464" y1="770" x2="478" y2="770" stroke="#2a4a5a" stroke-width="1" opacity="0.4"/>
  <line x1="464" y1="800" x2="478" y2="800" stroke="#2a4a5a" stroke-width="1" opacity="0.4"/>
  <line x1="466" y1="830" x2="480" y2="830" stroke="#2a4a5a" stroke-width="1" opacity="0.4"/>
  <line x1="470" y1="860" x2="484" y2="860" stroke="#2a4a5a" stroke-width="1" opacity="0.4"/>
  <line x1="720" y1="710" x2="734" y2="710" stroke="#2a4a5a" stroke-width="1" opacity="0.4"/>
  <line x1="722" y1="740" x2="736" y2="740" stroke="#2a4a5a" stroke-width="1" opacity="0.4"/>
  <line x1="724" y1="770" x2="738" y2="770" stroke="#2a4a5a" stroke-width="1" opacity="0.4"/>
  <line x1="726" y1="800" x2="740" y2="800" stroke="#2a4a5a" stroke-width="1" opacity="0.4"/>
  <line x1="726" y1="830" x2="740" y2="830" stroke="#2a4a5a" stroke-width="1" opacity="0.4"/>
  <line x1="724" y1="860" x2="738" y2="860" stroke="#2a4a5a" stroke-width="1" opacity="0.4"/>

  <!-- Colon labels -->
  <text x="440" y="790" text-anchor="middle" font-family="Arial" font-size="8" fill="#3a5a6a" font-weight="bold" transform="rotate(-90,440,790)">CÔLON ASCENDANT</text>
  <text x="600" y="635" text-anchor="middle" font-family="Arial" font-size="8" fill="#3a5a6a" font-weight="bold">CÔLON TRANSVERSE</text>
  <text x="758" y="790" text-anchor="middle" font-family="Arial" font-size="8" fill="#3a5a6a" font-weight="bold" transform="rotate(90,758,790)">CÔLON DESCENDANT</text>

  <!-- Bacteria cluster in colon -->
  <circle cx="600" cy="660" r="4" fill="#ff6b6b" opacity="0.5"/>
  <circle cx="610" cy="655" r="3" fill="#ffd93d" opacity="0.5"/>
  <circle cx="595" cy="652" r="3.5" fill="#6bcb77" opacity="0.5"/>
  <circle cx="605" cy="665" r="3" fill="#4d96ff" opacity="0.5"/>
  <circle cx="590" cy="662" r="2.5" fill="#ff6b6b" opacity="0.5"/>

  <!-- ── 8. RECTUM ───────────────────────────────── -->
  <path d="M590,920 Q588,940 590,960 Q594,980 600,990" stroke="#7f8c8d" stroke-width="18" fill="none" stroke-linecap="round"/>
  <text x="600" y="965" text-anchor="middle" font-family="Arial" font-size="8" fill="#fff" font-weight="bold">RECTUM</text>

  <!-- ══════════════════════════════════════════════
       ANNOTATION LINES + DATA CARDS (LEFT SIDE)
       ══════════════════════════════════════════════ -->

  <!-- BOUCHE annotation (left) -->
  <line x1="550" y1="200" x2="280" y2="175" stroke="#e74c3c" stroke-width="1.5" stroke-dasharray="4,3" opacity="0.6"/>
  <circle cx="550" cy="200" r="4" fill="#e74c3c"/>
  <rect x="20" y="148" width="262" height="105" rx="10" fill="#fff" stroke="#e74c3c" stroke-width="2" filter="url(#shadow)"/>
  <rect x="20" y="148" width="262" height="28" rx="10" fill="#e74c3c"/>
  <rect x="20" y="166" width="262" height="10" fill="#e74c3c"/>
  <text x="30" y="168" font-family="Arial" font-size="13" fill="#fff" font-weight="bold">👄 LA BOUCHE</text>
  <text x="30" y="196" font-family="Arial" font-size="11" fill="#1a1a2e"><tspan font-weight="bold" fill="#c8a84b">700+</tspan> espèces de bactéries</text>
  <text x="30" y="213" font-family="Arial" font-size="11" fill="#1a1a2e"><tspan font-weight="bold" fill="#c8a84b">1 litre</tspan> de salive produit / jour</text>
  <text x="30" y="230" font-family="Arial" font-size="11" fill="#1a1a2e"><tspan font-weight="bold" fill="#c8a84b">10 000</tspan> papilles gustatives</text>
  <text x="30" y="246" font-family="Arial" font-size="9" fill="#2d7a4f" font-weight="600">🌿 Goyavier · Clou de girofle · Sauge</text>

  <!-- ŒSOPHAGE annotation (right) -->
  <line x1="615" y1="320" x2="800" y2="280" stroke="#d4654a" stroke-width="1.5" stroke-dasharray="4,3" opacity="0.6"/>
  <circle cx="615" cy="320" r="4" fill="#d4654a"/>
  <rect x="800" y="248" width="380" height="110" rx="10" fill="#fff" stroke="#d4654a" stroke-width="2" filter="url(#shadow)"/>
  <rect x="800" y="248" width="380" height="28" rx="10" fill="#d4654a"/>
  <rect x="800" y="266" width="380" height="10" fill="#d4654a"/>
  <text x="810" y="268" font-family="Arial" font-size="13" fill="#fff" font-weight="bold">📏 L'ŒSOPHAGE</text>
  <text x="810" y="296" font-family="Arial" font-size="11" fill="#1a1a2e"><tspan font-weight="bold" fill="#c8a84b">25 cm</tspan> de longueur</text>
  <text x="810" y="313" font-family="Arial" font-size="11" fill="#1a1a2e"><tspan font-weight="bold" fill="#c8a84b">3-4 secondes</tspan> pour transiter un bol alimentaire</text>
  <text x="810" y="330" font-family="Arial" font-size="11" fill="#1a1a2e"><tspan font-weight="bold" fill="#c8a84b">2 sphincters</tspan> protègent contre le reflux acide</text>
  <text x="810" y="350" font-family="Arial" font-size="9" fill="#2d7a4f" font-weight="600">🌿 Réglisse · Aloe vera · Camomille</text>

  <!-- FOIE annotation (left) -->
  <line x1="430" y1="460" x2="280" y2="400" stroke="#8e44ad" stroke-width="1.5" stroke-dasharray="4,3" opacity="0.6"/>
  <circle cx="430" cy="460" r="4" fill="#8e44ad"/>
  <rect x="20" y="368" width="262" height="128" rx="10" fill="#fff" stroke="#8e44ad" stroke-width="2" filter="url(#shadow)"/>
  <rect x="20" y="368" width="262" height="28" rx="10" fill="#8e44ad"/>
  <rect x="20" y="386" width="262" height="10" fill="#8e44ad"/>
  <text x="30" y="388" font-family="Arial" font-size="13" fill="#fff" font-weight="bold">🫘 LE FOIE</text>
  <text x="30" y="416" font-family="Arial" font-size="11" fill="#1a1a2e"><tspan font-weight="bold" fill="#c8a84b">1.5 kg</tspan> — le plus grand organe interne</text>
  <text x="30" y="433" font-family="Arial" font-size="11" fill="#1a1a2e"><tspan font-weight="bold" fill="#c8a84b">500+</tspan> fonctions métaboliques</text>
  <text x="30" y="450" font-family="Arial" font-size="11" fill="#1a1a2e"><tspan font-weight="bold" fill="#c8a84b">1.4 L</tspan> de sang filtré par minute</text>
  <text x="30" y="467" font-family="Arial" font-size="11" fill="#1a1a2e"><tspan font-weight="bold" fill="#c8a84b">100%</tspan> capable de se régénérer</text>
  <text x="30" y="487" font-family="Arial" font-size="9" fill="#2d7a4f" font-weight="600">🌿 Chardon-Marie · Papaye · Boldo</text>

  <!-- ESTOMAC annotation (right) -->
  <line x1="640" y1="550" x2="800" y2="485" stroke="#e08840" stroke-width="1.5" stroke-dasharray="4,3" opacity="0.6"/>
  <circle cx="640" cy="550" r="4" fill="#e08840"/>
  <rect x="800" y="448" width="380" height="138" rx="10" fill="#fff" stroke="#e08840" stroke-width="2" filter="url(#shadow)"/>
  <rect x="800" y="448" width="380" height="28" rx="10" fill="#e08840"/>
  <rect x="800" y="466" width="380" height="10" fill="#e08840"/>
  <text x="810" y="468" font-family="Arial" font-size="13" fill="#fff" font-weight="bold">🫗 L'ESTOMAC</text>
  <text x="810" y="498" font-family="Arial" font-size="11" fill="#1a1a2e"><tspan font-weight="bold" fill="#c8a84b">pH 1.5</tspan> — acide assez fort pour dissoudre le métal !</text>
  <text x="810" y="515" font-family="Arial" font-size="11" fill="#1a1a2e"><tspan font-weight="bold" fill="#c8a84b">3 litres</tspan> de suc gastrique produits par jour</text>
  <text x="810" y="532" font-family="Arial" font-size="11" fill="#1a1a2e"><tspan font-weight="bold" fill="#c8a84b">35 millions</tspan> de glandes gastriques</text>
  <text x="810" y="549" font-family="Arial" font-size="11" fill="#1a1a2e"><tspan font-weight="bold" fill="#c8a84b">2-5 heures</tspan> pour digérer un repas</text>
  <text x="810" y="570" font-family="Arial" font-size="9" fill="#2d7a4f" font-weight="600">🌿 Corossol · Curcuma · Gingembre · Menthe</text>

  <!-- PANCRÉAS annotation (left) -->
  <line x1="530" y1="635" x2="280" y2="580" stroke="#2e78c2" stroke-width="1.5" stroke-dasharray="4,3" opacity="0.6"/>
  <circle cx="530" cy="635" r="4" fill="#2e78c2"/>
  <rect x="20" y="545" width="262" height="118" rx="10" fill="#fff" stroke="#2e78c2" stroke-width="2" filter="url(#shadow)"/>
  <rect x="20" y="545" width="262" height="28" rx="10" fill="#2e78c2"/>
  <rect x="20" y="563" width="262" height="10" fill="#2e78c2"/>
  <text x="30" y="565" font-family="Arial" font-size="13" fill="#fff" font-weight="bold">🔬 LE PANCRÉAS</text>
  <text x="30" y="593" font-family="Arial" font-size="11" fill="#1a1a2e"><tspan font-weight="bold" fill="#c8a84b">2 millions</tspan> d'îlots de Langerhans</text>
  <text x="30" y="610" font-family="Arial" font-size="11" fill="#1a1a2e"><tspan font-weight="bold" fill="#c8a84b">1.5 L</tspan> de suc pancréatique / jour</text>
  <text x="30" y="627" font-family="Arial" font-size="11" fill="#1a1a2e">Produit l'<tspan font-weight="bold" fill="#c8a84b">insuline</tspan> (régule le sucre)</text>
  <text x="30" y="654" font-family="Arial" font-size="9" fill="#2d7a4f" font-weight="600">🌿 Asosi / Momordica · Cannelle · Fenugrec</text>

  <!-- INTESTIN GRÊLE annotation (right) -->
  <line x1="650" y1="760" x2="800" y2="700" stroke="#1a9a6a" stroke-width="1.5" stroke-dasharray="4,3" opacity="0.6"/>
  <circle cx="650" cy="760" r="4" fill="#1a9a6a"/>
  <rect x="800" y="665" width="380" height="148" rx="10" fill="#fff" stroke="#1a9a6a" stroke-width="2" filter="url(#shadow)"/>
  <rect x="800" y="665" width="380" height="28" rx="10" fill="#1a9a6a"/>
  <rect x="800" y="683" width="380" height="10" fill="#1a9a6a"/>
  <text x="810" y="685" font-family="Arial" font-size="13" fill="#fff" font-weight="bold">🔄 L'INTESTIN GRÊLE</text>
  <text x="810" y="715" font-family="Arial" font-size="11" fill="#1a1a2e"><tspan font-weight="bold" fill="#c8a84b">6-7 mètres</tspan> de longueur totale</text>
  <text x="810" y="732" font-family="Arial" font-size="11" fill="#1a1a2e"><tspan font-weight="bold" fill="#c8a84b">32 m²</tspan> de surface (= un terrain de tennis !)</text>
  <text x="810" y="749" font-family="Arial" font-size="11" fill="#1a1a2e"><tspan font-weight="bold" fill="#c8a84b">90%</tspan> des nutriments absorbés ici</text>
  <text x="810" y="766" font-family="Arial" font-size="11" fill="#1a1a2e">Muqueuse se renouvelle tous les <tspan font-weight="bold" fill="#c8a84b">3-5 jours</tspan></text>
  <text x="810" y="786" font-family="Arial" font-size="11" fill="#1a1a2e"><tspan font-weight="bold" fill="#c8a84b">5 millions</tspan> de villosités par cm²</text>
  <text x="810" y="805" font-family="Arial" font-size="9" fill="#2d7a4f" font-weight="600">🌿 Psyllium · Fenouil / Lansman · Guimauve</text>

  <!-- CÔLON annotation (left) -->
  <line x1="465" y1="790" x2="280" y2="760" stroke="#3a5a6a" stroke-width="1.5" stroke-dasharray="4,3" opacity="0.6"/>
  <circle cx="465" cy="790" r="4" fill="#3a5a6a"/>
  <rect x="20" y="710" width="262" height="158" rx="10" fill="#fff" stroke="#3a5a6a" stroke-width="2" filter="url(#shadow)"/>
  <rect x="20" y="710" width="262" height="28" rx="10" fill="#3a5a6a"/>
  <rect x="20" y="728" width="262" height="10" fill="#3a5a6a"/>
  <text x="30" y="730" font-family="Arial" font-size="13" fill="#fff" font-weight="bold">🦠 LE CÔLON / GROS INTESTIN</text>
  <text x="30" y="758" font-family="Arial" font-size="11" fill="#1a1a2e"><tspan font-weight="bold" fill="#c8a84b">1.5 m</tspan> de longueur</text>
  <text x="30" y="775" font-family="Arial" font-size="11" fill="#1a1a2e"><tspan font-weight="bold" fill="#c8a84b">38 TRILLIONS</tspan> de bactéries !</text>
  <text x="30" y="792" font-family="Arial" font-size="11" fill="#1a1a2e"><tspan font-weight="bold" fill="#c8a84b">1 000+</tspan> espèces bactériennes</text>
  <text x="30" y="809" font-family="Arial" font-size="11" fill="#1a1a2e"><tspan font-weight="bold" fill="#c8a84b">70%</tspan> du système immunitaire ici</text>
  <text x="30" y="826" font-family="Arial" font-size="11" fill="#1a1a2e"><tspan font-weight="bold" fill="#c8a84b">2 kg</tspan> — poids du microbiome</text>
  <text x="30" y="846" font-family="Arial" font-size="11" fill="#1a1a2e">Appelé le « <tspan font-weight="bold" fill="#c8a84b">2e cerveau</tspan> »</text>
  <text x="30" y="862" font-family="Arial" font-size="9" fill="#2d7a4f" font-weight="600">🌿 Aloe / Lalwa · Plantain · Gingembre</text>

  <!-- RECTUM annotation (right) -->
  <line x1="615" y1="960" x2="800" y2="910" stroke="#7f8c8d" stroke-width="1.5" stroke-dasharray="4,3" opacity="0.6"/>
  <circle cx="615" cy="960" r="4" fill="#7f8c8d"/>
  <rect x="800" y="885" width="380" height="90" rx="10" fill="#fff" stroke="#7f8c8d" stroke-width="2" filter="url(#shadow)"/>
  <rect x="800" y="885" width="380" height="28" rx="10" fill="#7f8c8d"/>
  <rect x="800" y="903" width="380" height="10" fill="#7f8c8d"/>
  <text x="810" y="905" font-family="Arial" font-size="13" fill="#fff" font-weight="bold">🔚 RECTUM &amp; SORTIE</text>
  <text x="810" y="933" font-family="Arial" font-size="11" fill="#1a1a2e"><tspan font-weight="bold" fill="#c8a84b">12-15 cm</tspan> · <tspan font-weight="bold" fill="#c8a84b">2 sphincters</tspan> de contrôle</text>
  <text x="810" y="950" font-family="Arial" font-size="11" fill="#1a1a2e"><tspan font-weight="bold" fill="#c8a84b">150 g</tspan> de selles éliminées par jour</text>
  <text x="810" y="968" font-family="Arial" font-size="9" fill="#2d7a4f" font-weight="600">🌿 Hamamélis · Calendula · Marronnier</text>

  <!-- ══════════════════════════════════════════════
       BOTTOM SECTION: "LE SAVIEZ-VOUS?"
       ══════════════════════════════════════════════ -->
  <rect x="20" y="1020" width="1160" height="4" rx="2" fill="#c8a84b" opacity="0.4"/>
  <text x="600" y="1060" text-anchor="middle" font-family="Georgia, serif" font-size="24" fill="#1a4a2e" font-weight="bold">Le Saviez-Vous ?</text>

  <!-- Fact card 1: Second brain -->
  <rect x="30" y="1085" width="360" height="170" rx="12" fill="#fff" stroke="#1a9a6a" stroke-width="2" filter="url(#shadow)"/>
  <rect x="30" y="1085" width="360" height="36" rx="12" fill="#1a9a6a"/>
  <rect x="30" y="1107" width="360" height="14" fill="#1a9a6a"/>
  <text x="50" y="1110" font-family="Arial" font-size="14" fill="#fff" font-weight="bold">🧠 Le « Deuxième Cerveau »</text>
  <text x="45" y="1145" font-family="Arial" font-size="12" fill="#1a1a2e">L'intestin contient</text>
  <text x="45" y="1163" font-family="Arial" font-size="18" fill="#c8a84b" font-weight="bold">500 millions de neurones</text>
  <text x="45" y="1183" font-family="Arial" font-size="12" fill="#1a1a2e">connectés au cerveau via le nerf vague.</text>
  <text x="45" y="1206" font-family="Arial" font-size="13" fill="#e74c3c" font-weight="bold">95% de la sérotonine</text>
  <text x="45" y="1223" font-family="Arial" font-size="12" fill="#1a1a2e">(hormone du bonheur) est produite</text>
  <text x="45" y="1240" font-family="Arial" font-size="12" fill="#1a1a2e">dans l'intestin, pas dans le cerveau !</text>

  <!-- Fact card 2: Immune system -->
  <rect x="420" y="1085" width="360" height="170" rx="12" fill="#fff" stroke="#2980b9" stroke-width="2" filter="url(#shadow)"/>
  <rect x="420" y="1085" width="360" height="36" rx="12" fill="#2980b9"/>
  <rect x="420" y="1107" width="360" height="14" fill="#2980b9"/>
  <text x="440" y="1110" font-family="Arial" font-size="14" fill="#fff" font-weight="bold">🛡️ Immunité &amp; Intestin</text>
  <text x="435" y="1145" font-family="Arial" font-size="18" fill="#c8a84b" font-weight="bold">70-80%</text>
  <text x="435" y="1165" font-family="Arial" font-size="12" fill="#1a1a2e">du système immunitaire se trouve</text>
  <text x="435" y="1182" font-family="Arial" font-size="12" fill="#1a1a2e">dans l'intestin (tissu lymphoïde GALT).</text>
  <text x="435" y="1208" font-family="Arial" font-size="12" fill="#1a1a2e">Un microbiome sain protège contre les</text>
  <text x="435" y="1225" font-family="Arial" font-size="12" fill="#1a1a2e">infections, allergies et maladies</text>
  <text x="435" y="1242" font-family="Arial" font-size="12" fill="#1a1a2e">auto-immunes.</text>

  <!-- Fact card 3: Journey of food -->
  <rect x="810" y="1085" width="370" height="170" rx="12" fill="#fff" stroke="#e08840" stroke-width="2" filter="url(#shadow)"/>
  <rect x="810" y="1085" width="370" height="36" rx="12" fill="#e08840"/>
  <rect x="810" y="1107" width="370" height="14" fill="#e08840"/>
  <text x="830" y="1110" font-family="Arial" font-size="14" fill="#fff" font-weight="bold">⏱️ Le Voyage d'un Repas</text>
  <text x="825" y="1145" font-family="Arial" font-size="12" fill="#1a1a2e">De la bouche à l'élimination :</text>
  <text x="825" y="1168" font-family="Arial" font-size="16" fill="#c8a84b" font-weight="bold">24 à 72 heures</text>
  <text x="825" y="1190" font-family="Arial" font-size="12" fill="#1a1a2e">à travers <tspan font-weight="bold">9 mètres</tspan> de tube digestif.</text>
  <text x="825" y="1214" font-family="Arial" font-size="11" fill="#4a5568">• Estomac: 2-5h</text>
  <text x="825" y="1231" font-family="Arial" font-size="11" fill="#4a5568">• Intestin grêle: 3-5h</text>
  <text x="825" y="1248" font-family="Arial" font-size="11" fill="#4a5568">• Côlon: 12-36h</text>

  <!-- ══════════════════════════════════════════════
       HAITI CONTEXT BOX
       ══════════════════════════════════════════════ -->
  <rect x="30" y="1290" width="1140" height="130" rx="14" fill="#1a4a2e" filter="url(#shadow)"/>
  <text x="600" y="1320" text-anchor="middle" font-family="Arial" font-size="15" fill="#c8a84b" font-weight="bold">🇭🇹 EN HAÏTI — POURQUOI C'EST IMPORTANT</text>
  <text x="600" y="1348" text-anchor="middle" font-family="Arial" font-size="13" fill="rgba(255,255,255,0.85)">Les maladies digestives (diarrhée, parasitoses intestinales, ulcères gastriques) sont parmi les premières</text>
  <text x="600" y="1368" text-anchor="middle" font-family="Arial" font-size="13" fill="rgba(255,255,255,0.85)">causes de consultation médicale en Haïti. Plus de <tspan font-weight="bold" fill="#c8a84b">80% de la population</tspan> utilise les plantes</text>
  <text x="600" y="1388" text-anchor="middle" font-family="Arial" font-size="13" fill="rgba(255,255,255,0.85)">médicinales comme soin de santé primaire. Les « <tspan font-weight="bold" fill="#c8a84b">té</tspan> » (tisanes) digestives sont le remède</text>
  <text x="600" y="1408" text-anchor="middle" font-family="Arial" font-size="13" fill="rgba(255,255,255,0.85)">traditionnel le plus utilisé — un savoir ancestral validé progressivement par la science moderne.</text>

  <!-- ══════════════════════════════════════════════
       WARNING + FOOTER
       ══════════════════════════════════════════════ -->
  <rect x="30" y="1450" width="1140" height="60" rx="10" fill="#fff8e1" stroke="#f9a825" stroke-width="1.5"/>
  <text x="50" y="1475" font-family="Arial" font-size="12" fill="#e65100" font-weight="bold">⚠️ Avertissement :</text>
  <text x="190" y="1475" font-family="Arial" font-size="12" fill="#5d4037">Les plantes médicinales sont présentées à titre éducatif. Consultez toujours un professionnel de</text>
  <text x="50" y="1498" font-family="Arial" font-size="12" fill="#5d4037">santé avant toute utilisation thérapeutique, surtout en cas de grossesse, allaitement ou traitement médicamenteux.</text>

  <!-- Footer -->
  <rect x="0" y="1540" width="1200" height="60" fill="#0f2d1a"/>
  <text x="600" y="1568" text-anchor="middle" font-family="Arial" font-size="12" fill="rgba(255,255,255,0.6)">PMAA Haïti · Jardin Botanique des Cayes (JBC) · atlas-plantes-haiti.netlify.app · © 2025</text>
  <text x="600" y="1588" text-anchor="middle" font-family="Arial" font-size="11" fill="#c8a84b">Plantes Médicinales, Aromatiques &amp; Alimentaires du Grand Sud d'Haïti</text>

  <!-- Decorative leaf watermark -->
  <text x="600" y="560" text-anchor="middle" font-size="200" fill="#1a4a2e" opacity="0.02">🌿</text>

</svg>
