<svg xmlns="http://www.w3.org/2000/svg" width="400" height="300" viewBox="0 0 400 300">
  <rect width="400" height="300" fill="#e8f5e9"/>
  <g transform="translate(200,120)">
    <path d="M0,-60 C20,-60 40,-40 40,-20 C40,0 20,20 0,20 C-20,20 -40,0 -40,-20 C-40,-40 -20,-60 0,-60Z" fill="#2c5e3b" opacity="0.6"/>
    <path d="M0,-45 C30,-30 50,0 35,30 C20,60 0,40 0,40 C0,40 -20,60 -35,30 C-50,0 -30,-30 0,-45Z" fill="#4caf50" opacity="0.7"/>
    <line x1="0" y1="20" x2="0" y2="70" stroke="#2c5e3b" stroke-width="3" stroke-linecap="round"/>
    <path d="M0,40 C-15,30 -25,35 -30,45" stroke="#2c5e3b" stroke-width="2" fill="none" stroke-linecap="round"/>
    <path d="M0,50 C15,40 25,45 30,55" stroke="#2c5e3b" stroke-width="2" fill="none" stroke-linecap="round"/>
  </g>
  <text x="200" y="220" text-anchor="middle" font-family="Arial, sans-serif" font-size="14" fill="#2c5e3b" font-weight="bold">Photo non disponible</text>
  <text x="200" y="245" text-anchor="middle" font-family="Arial, sans-serif" font-size="11" fill="#66bb6a">Atlas PMAA · Grand Sud d'Haïti</text>
</svg>
